<svg version="1.1" xmlns="http://www.w3.org/2000/svg" xmlns:xlink="http://www.w3.org/1999/xlink" width="1609.87353515625" height="1005"><defs/><g><g transform="translate(-126,-134) scale(1,1)"><rect fill="#ffffff" stroke="none" x="176" y="176" width="284.54541015625" height="250"/></g><g transform="translate(-126,-134) scale(1,1)"><path fill="none" stroke="#000000" d="M 176 176 L 460.54541015625 176 L 460.54541015625 426 L 176 426 L 176 176 Z Z" stroke-miterlimit="10"/></g><g transform="translate(-126,-134) scale(1,1)"><path fill="none" stroke="#000000" d="M 176 201 L 460.54541015625 201" stroke-miterlimit="10"/></g><g transform="translate(-126,-134) scale(1,1)"><path fill="none" stroke="#000000" d="M 176 299 L 460.54541015625 299" stroke-miterlimit="10"/></g><g transform="translate(-126,-134) scale(1,1)"><g><path fill="none" stroke="none"/><text fill="#000000" stroke="none" font-family="Roboto" font-size="13px" font-style="normal" font-weight="bold" text-decoration="none" x="253.69482421875" y="195.5">ConfigurationManager</text></g></g><g transform="translate(-126,-134) scale(1,1)"><g><path fill="none" stroke="none"/><text fill="#000000" stroke="none" font-family="Roboto" font-size="13px" font-style="normal" font-weight="normal" text-decoration="none" x="181" y="218.5">-smtpServerAddress: final String</text></g></g><g transform="translate(-126,-134) scale(1,1)"><g><path fill="none" stroke="none"/><text fill="#000000" stroke="none" font-family="Roboto" font-size="13px" font-style="normal" font-weight="normal" text-decoration="none" x="181" y="233.5">-smtpServerPort: final int</text></g></g><g transform="translate(-126,-134) scale(1,1)"><g><path fill="none" stroke="none"/><text fill="#000000" stroke="none" font-family="Roboto" font-size="13px" font-style="normal" font-weight="normal" text-decoration="none" x="181" y="248.5">-smtpAuth: final boolean</text></g></g><g transform="translate(-126,-134) scale(1,1)"><g><path fill="none" stroke="none"/><text fill="#000000" stroke="none" font-family="Roboto" font-size="13px" font-style="normal" font-weight="normal" text-decoration="none" x="181" y="263.5">-numberOfGroups: String</text></g></g><g transform="translate(-126,-134) scale(1,1)"><g><path fill="none" stroke="none"/><text fill="#000000" stroke="none" font-family="Roboto" font-size="13px" font-style="normal" font-weight="normal" text-decoration="none" x="181" y="278.5">-smtpUsername: String</text></g></g><g transform="translate(-126,-134) scale(1,1)"><g><path fill="none" stroke="none"/><text fill="#000000" stroke="none" font-family="Roboto" font-size="13px" font-style="normal" font-weight="normal" text-decoration="none" x="181" y="293.5">-smtpPassword: String</text></g></g><g transform="translate(-126,-134) scale(1,1)"><g><path fill="none" stroke="none"/><text fill="#000000" stroke="none" font-family="Roboto" font-size="13px" font-style="normal" font-weight="normal" text-decoration="none" x="181" y="316.5">+ConfigurationManager()</text></g></g><g transform="translate(-126,-134) scale(1,1)"><g><path fill="none" stroke="none"/><text fill="#000000" stroke="none" font-family="Roboto" font-size="13px" font-style="normal" font-weight="normal" text-decoration="none" x="181" y="331.5">+getSmtpServerAddress(): String</text></g></g><g transform="translate(-126,-134) scale(1,1)"><g><path fill="none" stroke="none"/><text fill="#000000" stroke="none" font-family="Roboto" font-size="13px" font-style="normal" font-weight="normal" text-decoration="none" x="181" y="346.5">+getSmtpServerPort(): int</text></g></g><g transform="translate(-126,-134) scale(1,1)"><g><path fill="none" stroke="none"/><text fill="#000000" stroke="none" font-family="Roboto" font-size="13px" font-style="normal" font-weight="normal" text-decoration="none" x="181" y="361.5">+isSmtpAuthEnabled(): boolean</text></g></g><g transform="translate(-126,-134) scale(1,1)"><g><path fill="none" stroke="none"/><text fill="#000000" stroke="none" font-family="Roboto" font-size="13px" font-style="normal" font-weight="normal" text-decoration="none" x="181" y="376.5">+getSmtpUsername(): String</text></g></g><g transform="translate(-126,-134) scale(1,1)"><g><path fill="none" stroke="none"/><text fill="#000000" stroke="none" font-family="Roboto" font-size="13px" font-style="normal" font-weight="normal" text-decoration="none" x="181" y="391.5">+getSmtpPassword(): String</text></g></g><g transform="translate(-126,-134) scale(1,1)"><g><path fill="none" stroke="none"/><text fill="#000000" stroke="none" font-family="Roboto" font-size="13px" font-style="normal" font-weight="normal" text-decoration="none" x="181" y="406.5">+getNumberOfGroups(): int</text></g></g><g transform="translate(-126,-134) scale(1,1)"><g><path fill="none" stroke="none"/><text fill="#000000" stroke="none" font-family="Roboto" font-size="13px" font-style="normal" font-weight="normal" text-decoration="none" x="181" y="421.5">+setNumberOfGroups(numberOfGroups: String)</text></g></g><g transform="translate(-126,-134) scale(1,1)"><rect fill="#ffffff" stroke="none" x="1440" y="688" width="218.70751953125" height="85"/></g><g transform="translate(-126,-134) scale(1,1)"><path fill="none" stroke="#000000" d="M 1440 688 L 1658.70751953125 688 L 1658.70751953125 773 L 1440 773 L 1440 688 Z Z" stroke-miterlimit="10"/></g><g transform="translate(-126,-134) scale(1,1)"><path fill="none" stroke="#000000" d="M 1440 713 L 1658.70751953125 713" stroke-miterlimit="10"/></g><g transform="translate(-126,-134) scale(1,1)"><path fill="none" stroke="#000000" d="M 1440 736 L 1658.70751953125 736" stroke-miterlimit="10"/></g><g transform="translate(-126,-134) scale(1,1)"><g><path fill="none" stroke="none"/><text fill="#000000" stroke="none" font-family="Roboto" font-size="13px" font-style="normal" font-weight="bold" text-decoration="none" x="1531.853271484375" y="707.5">Group</text></g></g><g transform="translate(-126,-134) scale(1,1)"><g><path fill="none" stroke="none"/><text fill="#000000" stroke="none" font-family="Roboto" font-size="13px" font-style="normal" font-weight="normal" text-decoration="none" x="1445" y="730.5">-members: final LinkedList&lt;Person&gt;</text></g></g><g transform="translate(-126,-134) scale(1,1)"><g><path fill="none" stroke="none"/><text fill="#000000" stroke="none" font-family="Roboto" font-size="13px" font-style="normal" font-weight="normal" text-decoration="none" x="1445" y="753.5">+addMember(person: Person)</text></g></g><g transform="translate(-126,-134) scale(1,1)"><g><path fill="none" stroke="none"/><text fill="#000000" stroke="none" font-family="Roboto" font-size="13px" font-style="normal" font-weight="normal" text-decoration="none" x="1445" y="768.5">+getMembers(): LinkedList&lt;Person&gt;</text></g></g><g transform="translate(-126,-134) scale(1,1)"><rect fill="#ffffff" stroke="none" x="136" y="857" width="650.79248046875" height="265"/></g><g transform="translate(-126,-134) scale(1,1)"><path fill="none" stroke="#000000" d="M 136 857 L 786.79248046875 857 L 786.79248046875 1122 L 136 1122 L 136 857 Z Z" stroke-miterlimit="10"/></g><g transform="translate(-126,-134) scale(1,1)"><path fill="none" stroke="#000000" d="M 136 882 L 786.79248046875 882" stroke-miterlimit="10"/></g><g transform="translate(-126,-134) scale(1,1)"><path fill="none" stroke="#000000" d="M 136 995 L 786.79248046875 995" stroke-miterlimit="10"/></g><g transform="translate(-126,-134) scale(1,1)"><g><path fill="none" stroke="none"/><text fill="#000000" stroke="none" font-family="Roboto" font-size="13px" font-style="normal" font-weight="bold" text-decoration="none" x="449.031005859375" y="876.5">Mail</text></g></g><g transform="translate(-126,-134) scale(1,1)"><g><path fill="none" stroke="none"/><text fill="#000000" stroke="none" font-family="Roboto" font-size="13px" font-style="normal" font-weight="normal" text-decoration="none" x="141" y="899.5">-from: final String</text></g></g><g transform="translate(-126,-134) scale(1,1)"><g><path fill="none" stroke="none"/><text fill="#000000" stroke="none" font-family="Roboto" font-size="13px" font-style="normal" font-weight="normal" text-decoration="none" x="141" y="914.5">-fromWithName: final String</text></g></g><g transform="translate(-126,-134) scale(1,1)"><g><path fill="none" stroke="none"/><text fill="#000000" stroke="none" font-family="Roboto" font-size="13px" font-style="normal" font-weight="normal" text-decoration="none" x="141" y="929.5">-to: final String</text></g></g><g transform="translate(-126,-134) scale(1,1)"><g><path fill="none" stroke="none"/><text fill="#000000" stroke="none" font-family="Roboto" font-size="13px" font-style="normal" font-weight="normal" text-decoration="none" x="141" y="944.5">-toWithName: final String</text></g></g><g transform="translate(-126,-134) scale(1,1)"><g><path fill="none" stroke="none"/><text fill="#000000" stroke="none" font-family="Roboto" font-size="13px" font-style="normal" font-weight="normal" text-decoration="none" x="141" y="959.5">-cc: final String</text></g></g><g transform="translate(-126,-134) scale(1,1)"><g><path fill="none" stroke="none"/><text fill="#000000" stroke="none" font-family="Roboto" font-size="13px" font-style="normal" font-weight="normal" text-decoration="none" x="141" y="974.5">-subject: final String</text></g></g><g transform="translate(-126,-134) scale(1,1)"><g><path fill="none" stroke="none"/><text fill="#000000" stroke="none" font-family="Roboto" font-size="13px" font-style="normal" font-weight="normal" text-decoration="none" x="141" y="989.5">-body: final String</text></g></g><g transform="translate(-126,-134) scale(1,1)"><g><path fill="none" stroke="none"/><text fill="#000000" stroke="none" font-family="Roboto" font-size="13px" font-style="normal" font-weight="normal" text-decoration="none" x="141" y="1012.5">+Mail(from: String, fromWithName: String, to: String, toWithName: String, cc: String, subject: String, body: String)</text></g></g><g transform="translate(-126,-134) scale(1,1)"><g><path fill="none" stroke="none"/><text fill="#000000" stroke="none" font-family="Roboto" font-size="13px" font-style="normal" font-weight="normal" text-decoration="none" x="141" y="1027.5">+getFrom(): String</text></g></g><g transform="translate(-126,-134) scale(1,1)"><g><path fill="none" stroke="none"/><text fill="#000000" stroke="none" font-family="Roboto" font-size="13px" font-style="normal" font-weight="normal" text-decoration="none" x="141" y="1042.5">+getTo(): String</text></g></g><g transform="translate(-126,-134) scale(1,1)"><g><path fill="none" stroke="none"/><text fill="#000000" stroke="none" font-family="Roboto" font-size="13px" font-style="normal" font-weight="normal" text-decoration="none" x="141" y="1057.5">+getCc(): String</text></g></g><g transform="translate(-126,-134) scale(1,1)"><g><path fill="none" stroke="none"/><text fill="#000000" stroke="none" font-family="Roboto" font-size="13px" font-style="normal" font-weight="normal" text-decoration="none" x="141" y="1072.5">+getSubject(): String</text></g></g><g transform="translate(-126,-134) scale(1,1)"><g><path fill="none" stroke="none"/><text fill="#000000" stroke="none" font-family="Roboto" font-size="13px" font-style="normal" font-weight="normal" text-decoration="none" x="141" y="1087.5">+getBody(): String</text></g></g><g transform="translate(-126,-134) scale(1,1)"><g><path fill="none" stroke="none"/><text fill="#000000" stroke="none" font-family="Roboto" font-size="13px" font-style="normal" font-weight="normal" text-decoration="none" x="141" y="1102.5">+getFromWithName(): String</text></g></g><g transform="translate(-126,-134) scale(1,1)"><g><path fill="none" stroke="none"/><text fill="#000000" stroke="none" font-family="Roboto" font-size="13px" font-style="normal" font-weight="normal" text-decoration="none" x="141" y="1117.5">+getToWithName(): String</text></g></g><g transform="translate(-126,-134) scale(1,1)"><rect fill="#ffffff" stroke="none" x="1368" y="917" width="357.87353515625" height="145"/></g><g transform="translate(-126,-134) scale(1,1)"><path fill="none" stroke="#000000" d="M 1368 917 L 1725.87353515625 917 L 1725.87353515625 1062 L 1368 1062 L 1368 917 Z Z" stroke-miterlimit="10"/></g><g transform="translate(-126,-134) scale(1,1)"><path fill="none" stroke="#000000" d="M 1368 942 L 1725.87353515625 942" stroke-miterlimit="10"/></g><g transform="translate(-126,-134) scale(1,1)"><path fill="none" stroke="#000000" d="M 1368 995 L 1725.87353515625 995" stroke-miterlimit="10"/></g><g transform="translate(-126,-134) scale(1,1)"><g><path fill="none" stroke="none"/><text fill="#000000" stroke="none" font-family="Roboto" font-size="13px" font-style="normal" font-weight="bold" text-decoration="none" x="1526.58935546875" y="936.5">Person</text></g></g><g transform="translate(-126,-134) scale(1,1)"><g><path fill="none" stroke="none"/><text fill="#000000" stroke="none" font-family="Roboto" font-size="13px" font-style="normal" font-weight="normal" text-decoration="none" x="1373" y="959.5">-firstName: final String</text></g></g><g transform="translate(-126,-134) scale(1,1)"><g><path fill="none" stroke="none"/><text fill="#000000" stroke="none" font-family="Roboto" font-size="13px" font-style="normal" font-weight="normal" text-decoration="none" x="1373" y="974.5">-lastName: final String</text></g></g><g transform="translate(-126,-134) scale(1,1)"><g><path fill="none" stroke="none"/><text fill="#000000" stroke="none" font-family="Roboto" font-size="13px" font-style="normal" font-weight="normal" text-decoration="none" x="1373" y="989.5">-mail: final String</text></g></g><g transform="translate(-126,-134) scale(1,1)"><g><path fill="none" stroke="none"/><text fill="#000000" stroke="none" font-family="Roboto" font-size="13px" font-style="normal" font-weight="normal" text-decoration="none" x="1373" y="1012.5">+Person(firstName: String, lastName: String, address: String)</text></g></g><g transform="translate(-126,-134) scale(1,1)"><g><path fill="none" stroke="none"/><text fill="#000000" stroke="none" font-family="Roboto" font-size="13px" font-style="normal" font-weight="normal" text-decoration="none" x="1373" y="1027.5">+getFirstName(): String</text></g></g><g transform="translate(-126,-134) scale(1,1)"><g><path fill="none" stroke="none"/><text fill="#000000" stroke="none" font-family="Roboto" font-size="13px" font-style="normal" font-weight="normal" text-decoration="none" x="1373" y="1042.5">+getLastName(): String</text></g></g><g transform="translate(-126,-134) scale(1,1)"><g><path fill="none" stroke="none"/><text fill="#000000" stroke="none" font-family="Roboto" font-size="13px" font-style="normal" font-weight="normal" text-decoration="none" x="1373" y="1057.5">+getMail(): String</text></g></g><g transform="translate(-126,-134) scale(1,1)"><rect fill="#ffffff" stroke="none" x="264" y="536" width="250.83935546875" height="115"/></g><g transform="translate(-126,-134) scale(1,1)"><path fill="none" stroke="#000000" d="M 264 536 L 514.83935546875 536 L 514.83935546875 651 L 264 651 L 264 536 Z Z" stroke-miterlimit="10"/></g><g transform="translate(-126,-134) scale(1,1)"><path fill="none" stroke="#000000" d="M 264 561 L 514.83935546875 561" stroke-miterlimit="10"/></g><g transform="translate(-126,-134) scale(1,1)"><path fill="none" stroke="#000000" d="M 264 599 L 514.83935546875 599" stroke-miterlimit="10"/></g><g transform="translate(-126,-134) scale(1,1)"><g><path fill="none" stroke="none"/><text fill="#000000" stroke="none" font-family="Roboto" font-size="13px" font-style="normal" font-weight="bold" text-decoration="none" x="362.97216796875" y="555.5">Message</text></g></g><g transform="translate(-126,-134) scale(1,1)"><g><path fill="none" stroke="none"/><text fill="#000000" stroke="none" font-family="Roboto" font-size="13px" font-style="normal" font-weight="normal" text-decoration="none" x="269" y="578.5">-subject: final String</text></g></g><g transform="translate(-126,-134) scale(1,1)"><g><path fill="none" stroke="none"/><text fill="#000000" stroke="none" font-family="Roboto" font-size="13px" font-style="normal" font-weight="normal" text-decoration="none" x="269" y="593.5">-content: final String</text></g></g><g transform="translate(-126,-134) scale(1,1)"><g><path fill="none" stroke="none"/><text fill="#000000" stroke="none" font-family="Roboto" font-size="13px" font-style="normal" font-weight="normal" text-decoration="none" x="269" y="616.5">+Message(subject: String, content: String)</text></g></g><g transform="translate(-126,-134) scale(1,1)"><g><path fill="none" stroke="none"/><text fill="#000000" stroke="none" font-family="Roboto" font-size="13px" font-style="normal" font-weight="normal" text-decoration="none" x="269" y="631.5">+getSubject(): String</text></g></g><g transform="translate(-126,-134) scale(1,1)"><g><path fill="none" stroke="none"/><text fill="#000000" stroke="none" font-family="Roboto" font-size="13px" font-style="normal" font-weight="normal" text-decoration="none" x="269" y="646.5">+getContent(): String</text></g></g><g transform="translate(-126,-134) scale(1,1)"><rect fill="#ffffff" stroke="none" x="973" y="849" width="248.2177734375" height="280"/></g><g transform="translate(-126,-134) scale(1,1)"><path fill="none" stroke="#000000" d="M 973 849 L 1221.2177734375 849 L 1221.2177734375 1129 L 973 1129 L 973 849 Z Z" stroke-miterlimit="10"/></g><g transform="translate(-126,-134) scale(1,1)"><path fill="none" stroke="#000000" d="M 973 874 L 1221.2177734375 874" stroke-miterlimit="10"/></g><g transform="translate(-126,-134) scale(1,1)"><path fill="none" stroke="#000000" d="M 973 957 L 1221.2177734375 957" stroke-miterlimit="10"/></g><g transform="translate(-126,-134) scale(1,1)"><g><path fill="none" stroke="none"/><text fill="#000000" stroke="none" font-family="Roboto" font-size="13px" font-style="normal" font-weight="bold" text-decoration="none" x="1080.519287109375" y="868.5">Prank</text></g></g><g transform="translate(-126,-134) scale(1,1)"><g><path fill="none" stroke="none"/><text fill="#000000" stroke="none" font-family="Roboto" font-size="13px" font-style="normal" font-weight="normal" text-decoration="none" x="978" y="891.5">-victims: LinkedList&lt;Person&gt;</text></g></g><g transform="translate(-126,-134) scale(1,1)"><g><path fill="none" stroke="none"/><text fill="#000000" stroke="none" font-family="Roboto" font-size="13px" font-style="normal" font-weight="normal" text-decoration="none" x="978" y="906.5">-victimsWithNames: final StringBuilder</text></g></g><g transform="translate(-126,-134) scale(1,1)"><g><path fill="none" stroke="none"/><text fill="#000000" stroke="none" font-family="Roboto" font-size="13px" font-style="normal" font-weight="normal" text-decoration="none" x="978" y="921.5">-sender: Person</text></g></g><g transform="translate(-126,-134) scale(1,1)"><g><path fill="none" stroke="none"/><text fill="#000000" stroke="none" font-family="Roboto" font-size="13px" font-style="normal" font-weight="normal" text-decoration="none" x="978" y="936.5">-message: String</text></g></g><g transform="translate(-126,-134) scale(1,1)"><g><path fill="none" stroke="none"/><text fill="#000000" stroke="none" font-family="Roboto" font-size="13px" font-style="normal" font-weight="normal" text-decoration="none" x="978" y="951.5">-subject: String</text></g></g><g transform="translate(-126,-134) scale(1,1)"><g><path fill="none" stroke="none"/><text fill="#000000" stroke="none" font-family="Roboto" font-size="13px" font-style="normal" font-weight="normal" text-decoration="none" x="978" y="974.5">-getMailVictims(): String</text></g></g><g transform="translate(-126,-134) scale(1,1)"><g><path fill="none" stroke="none"/><text fill="#000000" stroke="none" font-family="Roboto" font-size="13px" font-style="normal" font-weight="normal" text-decoration="none" x="978" y="989.5">-getVictimsWithNames(): String</text></g></g><g transform="translate(-126,-134) scale(1,1)"><g><path fill="none" stroke="none"/><text fill="#000000" stroke="none" font-family="Roboto" font-size="13px" font-style="normal" font-weight="normal" text-decoration="none" x="978" y="1004.5">-getMailSender(): String</text></g></g><g transform="translate(-126,-134) scale(1,1)"><g><path fill="none" stroke="none"/><text fill="#000000" stroke="none" font-family="Roboto" font-size="13px" font-style="normal" font-weight="normal" text-decoration="none" x="978" y="1019.5">-getMailSenderWithName(): String</text></g></g><g transform="translate(-126,-134) scale(1,1)"><g><path fill="none" stroke="none"/><text fill="#000000" stroke="none" font-family="Roboto" font-size="13px" font-style="normal" font-weight="normal" text-decoration="none" x="978" y="1034.5">-getMailMessage(): String</text></g></g><g transform="translate(-126,-134) scale(1,1)"><g><path fill="none" stroke="none"/><text fill="#000000" stroke="none" font-family="Roboto" font-size="13px" font-style="normal" font-weight="normal" text-decoration="none" x="978" y="1049.5">-getMailSubject(): String</text></g></g><g transform="translate(-126,-134) scale(1,1)"><g><path fill="none" stroke="none"/><text fill="#000000" stroke="none" font-family="Roboto" font-size="13px" font-style="normal" font-weight="normal" text-decoration="none" x="978" y="1064.5">+generateMail(): Mail</text></g></g><g transform="translate(-126,-134) scale(1,1)"><g><path fill="none" stroke="none"/><text fill="#000000" stroke="none" font-family="Roboto" font-size="13px" font-style="normal" font-weight="normal" text-decoration="none" x="978" y="1079.5">+setSender(sender: Person)</text></g></g><g transform="translate(-126,-134) scale(1,1)"><g><path fill="none" stroke="none"/><text fill="#000000" stroke="none" font-family="Roboto" font-size="13px" font-style="normal" font-weight="normal" text-decoration="none" x="978" y="1094.5">+setVictims(victims: LinkedList&lt;Person&gt;)</text></g></g><g transform="translate(-126,-134) scale(1,1)"><g><path fill="none" stroke="none"/><text fill="#000000" stroke="none" font-family="Roboto" font-size="13px" font-style="normal" font-weight="normal" text-decoration="none" x="978" y="1109.5">+setMessage(message: String)</text></g></g><g transform="translate(-126,-134) scale(1,1)"><g><path fill="none" stroke="none"/><text fill="#000000" stroke="none" font-family="Roboto" font-size="13px" font-style="normal" font-weight="normal" text-decoration="none" x="978" y="1124.5">+setSubject(subject: String)</text></g></g><g transform="translate(-126,-134) scale(1,1)"><rect fill="#ffffff" stroke="none" x="743" y="512" width="708.74658203125" height="160"/></g><g transform="translate(-126,-134) scale(1,1)"><path fill="none" stroke="#000000" d="M 743 512 L 1451.74658203125 512 L 1451.74658203125 672 L 743 672 L 743 512 Z Z" stroke-miterlimit="10"/></g><g transform="translate(-126,-134) scale(1,1)"><path fill="none" stroke="#000000" d="M 743 537 L 1451.74658203125 537" stroke-miterlimit="10"/></g><g transform="translate(-126,-134) scale(1,1)"><path fill="none" stroke="#000000" d="M 743 575 L 1451.74658203125 575" stroke-miterlimit="10"/></g><g transform="translate(-126,-134) scale(1,1)"><g><path fill="none" stroke="none"/><text fill="#000000" stroke="none" font-family="Roboto" font-size="13px" font-style="normal" font-weight="bold" text-decoration="none" x="1052.30810546875" y="531.5">PrankGenerator</text></g></g><g transform="translate(-126,-134) scale(1,1)"><g><path fill="none" stroke="none"/><text fill="#000000" stroke="none" font-family="Roboto" font-size="13px" font-style="normal" font-weight="normal" text-decoration="none" x="748" y="554.5">-nbGroups: final int</text></g></g><g transform="translate(-126,-134) scale(1,1)"><g><path fill="none" stroke="none"/><text fill="#000000" stroke="none" font-family="Roboto" font-size="13px" font-style="normal" font-weight="normal" text-decoration="none" x="748" y="569.5">-mails: final LinkedList&lt;Mail&gt;</text></g></g><g transform="translate(-126,-134) scale(1,1)"><g><path fill="none" stroke="none"/><text fill="#000000" stroke="none" font-family="Roboto" font-size="13px" font-style="normal" font-weight="normal" text-decoration="none" x="748" y="592.5">+PrankGenerator(nbGroups: int)</text></g></g><g transform="translate(-126,-134) scale(1,1)"><g><path fill="none" stroke="none"/><text fill="#000000" stroke="none" font-family="Roboto" font-size="13px" font-style="normal" font-weight="normal" text-decoration="none" x="748" y="607.5">+generateMails()</text></g></g><g transform="translate(-126,-134) scale(1,1)"><g><path fill="none" stroke="none"/><text fill="#000000" stroke="none" font-family="Roboto" font-size="13px" font-style="normal" font-weight="normal" text-decoration="none" x="748" y="622.5">-generateVictimsList(): LinkedList&lt;Person&gt;</text></g></g><g transform="translate(-126,-134) scale(1,1)"><g><path fill="none" stroke="none"/><text fill="#000000" stroke="none" font-family="Roboto" font-size="13px" font-style="normal" font-weight="normal" text-decoration="none" x="748" y="637.5">-generateMessages(): LinkedList&lt;Message&gt;</text></g></g><g transform="translate(-126,-134) scale(1,1)"><g><path fill="none" stroke="none"/><text fill="#000000" stroke="none" font-family="Roboto" font-size="13px" font-style="normal" font-weight="normal" text-decoration="none" x="748" y="652.5">-generatePranks(victims: LinkedList&lt;Person&gt;, messages: LinkedList&lt;Message&gt;, numberOfGroups: int): LinkedList&lt;Prank&gt;</text></g></g><g transform="translate(-126,-134) scale(1,1)"><g><path fill="none" stroke="none"/><text fill="#000000" stroke="none" font-family="Roboto" font-size="13px" font-style="normal" font-weight="normal" text-decoration="none" x="748" y="667.5">+getMails(): LinkedList&lt;Mail&gt;</text></g></g><g transform="translate(-126,-134) scale(1,1)"><rect fill="#ffffff" stroke="none" x="1176" y="144" width="495.97314453125" height="280"/></g><g transform="translate(-126,-134) scale(1,1)"><path fill="none" stroke="#000000" d="M 1176 144 L 1671.97314453125 144 L 1671.97314453125 424 L 1176 424 L 1176 144 Z Z" stroke-miterlimit="10"/></g><g transform="translate(-126,-134) scale(1,1)"><path fill="none" stroke="#000000" d="M 1176 169 L 1671.97314453125 169" stroke-miterlimit="10"/></g><g transform="translate(-126,-134) scale(1,1)"><path fill="none" stroke="#000000" d="M 1176 312 L 1671.97314453125 312" stroke-miterlimit="10"/></g><g transform="translate(-126,-134) scale(1,1)"><g><path fill="none" stroke="none"/><text fill="#000000" stroke="none" font-family="Roboto" font-size="13px" font-style="normal" font-weight="bold" text-decoration="none" x="1392.12451171875" y="163.5">SmtpClient</text></g></g><g transform="translate(-126,-134) scale(1,1)"><g><path fill="none" stroke="none"/><text fill="#000000" stroke="none" font-family="Roboto" font-size="13px" font-style="normal" font-weight="normal" text-decoration="none" x="1181" y="186.5">-host: final String</text></g></g><g transform="translate(-126,-134) scale(1,1)"><g><path fill="none" stroke="none"/><text fill="#000000" stroke="none" font-family="Roboto" font-size="13px" font-style="normal" font-weight="normal" text-decoration="none" x="1181" y="201.5">-port: final int</text></g></g><g transform="translate(-126,-134) scale(1,1)"><g><path fill="none" stroke="none"/><text fill="#000000" stroke="none" font-family="Roboto" font-size="13px" font-style="normal" font-weight="normal" text-decoration="none" x="1181" y="216.5">-auth: final boolean</text></g></g><g transform="translate(-126,-134) scale(1,1)"><g><path fill="none" stroke="none"/><text fill="#000000" stroke="none" font-family="Roboto" font-size="13px" font-style="normal" font-weight="normal" text-decoration="none" x="1181" y="231.5">-username: final String</text></g></g><g transform="translate(-126,-134) scale(1,1)"><g><path fill="none" stroke="none"/><text fill="#000000" stroke="none" font-family="Roboto" font-size="13px" font-style="normal" font-weight="normal" text-decoration="none" x="1181" y="246.5">-password: final String</text></g></g><g transform="translate(-126,-134) scale(1,1)"><g><path fill="none" stroke="none"/><text fill="#000000" stroke="none" font-family="Roboto" font-size="13px" font-style="normal" font-weight="normal" text-decoration="none" x="1181" y="261.5">-out: BufferedWriter</text></g></g><g transform="translate(-126,-134) scale(1,1)"><g><path fill="none" stroke="none"/><text fill="#000000" stroke="none" font-family="Roboto" font-size="13px" font-style="normal" font-weight="normal" text-decoration="none" x="1181" y="276.5">-in: BufferedReader</text></g></g><g transform="translate(-126,-134) scale(1,1)"><g><path fill="none" stroke="none"/><text fill="#000000" stroke="none" font-family="Roboto" font-size="13px" font-style="normal" font-weight="normal" text-decoration="none" x="1181" y="291.5">-connected: boolean = false</text></g></g><g transform="translate(-126,-134) scale(1,1)"><g><path fill="none" stroke="none"/><text fill="#000000" stroke="none" font-family="Roboto" font-size="13px" font-style="normal" font-weight="normal" text-decoration="none" x="1181" y="306.5">-debug: boolean = false</text></g></g><g transform="translate(-126,-134) scale(1,1)"><g><path fill="none" stroke="none"/><text fill="#000000" stroke="none" font-family="Roboto" font-size="13px" font-style="normal" font-weight="normal" text-decoration="none" x="1181" y="329.5">+SmtpClient(host: String, port: int, auth: boolean, username: String, password: String)</text></g></g><g transform="translate(-126,-134) scale(1,1)"><g><path fill="none" stroke="none"/><text fill="#000000" stroke="none" font-family="Roboto" font-size="13px" font-style="normal" font-weight="normal" text-decoration="none" x="1181" y="344.5">+connect(): boolean</text></g></g><g transform="translate(-126,-134) scale(1,1)"><g><path fill="none" stroke="none"/><text fill="#000000" stroke="none" font-family="Roboto" font-size="13px" font-style="normal" font-weight="normal" text-decoration="none" x="1181" y="359.5">+disconnect()</text></g></g><g transform="translate(-126,-134) scale(1,1)"><g><path fill="none" stroke="none"/><text fill="#000000" stroke="none" font-family="Roboto" font-size="13px" font-style="normal" font-weight="normal" text-decoration="none" x="1181" y="374.5">+sendMail(mail: Mail): boolean</text></g></g><g transform="translate(-126,-134) scale(1,1)"><g><path fill="none" stroke="none"/><text fill="#000000" stroke="none" font-family="Roboto" font-size="13px" font-style="normal" font-weight="normal" text-decoration="none" x="1181" y="389.5">+enableDebug()</text></g></g><g transform="translate(-126,-134) scale(1,1)"><g><path fill="none" stroke="none"/><text fill="#000000" stroke="none" font-family="Roboto" font-size="13px" font-style="normal" font-weight="normal" text-decoration="none" x="1181" y="404.5">-readLine(): String</text></g></g><g transform="translate(-126,-134) scale(1,1)"><g><path fill="none" stroke="none"/><text fill="#000000" stroke="none" font-family="Roboto" font-size="13px" font-style="normal" font-weight="normal" text-decoration="none" x="1181" y="419.5">-writeLine(line: String)</text></g></g><g transform="translate(-126,-134) scale(1,1)"><path fill="none" stroke="#000000" d="M 1548 774 L 1547 916" stroke-miterlimit="10"/></g><g transform="translate(-126,-134) scale(1,1)"><path fill="none" stroke="#000000" d="M 1542.8621529803281 905.8079333772884 L 1547 916 L 1551.280979736102 905.867220889653" stroke-miterlimit="10"/></g><g transform="translate(-126,-134) scale(1,1)"><g><path fill="none" stroke="none"/><text fill="#000000" stroke="none" font-family="Roboto" font-size="13px" font-style="normal" font-weight="normal" text-decoration="none" x="1569.5" y="849.5">+contains</text></g></g><g transform="translate(-126,-134) scale(1,1)"><g><path fill="none" stroke="none"/><text fill="#000000" stroke="none" font-family="Roboto" font-size="13px" font-style="normal" font-weight="normal" text-decoration="none" x="1531.5" y="801.5">1</text></g></g><g transform="translate(-126,-134) scale(1,1)"><g><path fill="none" stroke="none"/><text fill="#000000" stroke="none" font-family="Roboto" font-size="13px" font-style="normal" font-weight="normal" text-decoration="none" x="1524.5" y="900.5">1..*</text></g></g><g transform="translate(-126,-134) scale(1,1)"><path fill="none" stroke="#000000" d="M 1222 989 L 1367 989" stroke-miterlimit="10"/></g><g transform="translate(-126,-134) scale(1,1)"><path fill="none" stroke="#000000" d="M 1356.837325142376 993.209517756016 L 1367 989 L 1356.837325142376 984.790482243984" stroke-miterlimit="10"/></g><g transform="translate(-126,-134) scale(1,1)"><g><path fill="none" stroke="none"/><text fill="#000000" stroke="none" font-family="Roboto" font-size="13px" font-style="normal" font-weight="normal" text-decoration="none" x="1261.5" y="964.5">+concerns</text></g></g><g transform="translate(-126,-134) scale(1,1)"><g><path fill="none" stroke="none"/><text fill="#000000" stroke="none" font-family="Roboto" font-size="13px" font-style="normal" font-weight="normal" text-decoration="none" x="1239.54443359375" y="1007.5">1</text></g></g><g transform="translate(-126,-134) scale(1,1)"><g><path fill="none" stroke="none"/><text fill="#000000" stroke="none" font-family="Roboto" font-size="13px" font-style="normal" font-weight="normal" text-decoration="none" x="1335.14990234375" y="1007.5">1..*</text></g></g><g transform="translate(-126,-134) scale(1,1)"><path fill="none" stroke="#000000" d="M 1097 673 L 1097 848" stroke-miterlimit="10"/></g><g transform="translate(-126,-134) scale(1,1)"><path fill="none" stroke="#000000" d="M 1092.7904822439841 837.8373251423759 L 1097 848 L 1101.2095177560159 837.8373251423759" stroke-miterlimit="10"/></g><g transform="translate(-126,-134) scale(1,1)"><g><path fill="none" stroke="none"/><text fill="#000000" stroke="none" font-family="Roboto" font-size="13px" font-style="normal" font-weight="normal" text-decoration="none" x="1105.5" y="788.5">+generates</text></g></g><g transform="translate(-126,-134) scale(1,1)"><g><path fill="none" stroke="none"/><text fill="#000000" stroke="none" font-family="Roboto" font-size="13px" font-style="normal" font-weight="normal" text-decoration="none" x="1080.5" y="700.5">1</text></g></g><g transform="translate(-126,-134) scale(1,1)"><g><path fill="none" stroke="none"/><text fill="#000000" stroke="none" font-family="Roboto" font-size="13px" font-style="normal" font-weight="normal" text-decoration="none" x="1074.5" y="832.5">1..*</text></g></g><g transform="translate(-126,-134) scale(1,1)"><path fill="none" stroke="#000000" d="M 972 989 L 788 989" stroke-miterlimit="10"/></g><g transform="translate(-126,-134) scale(1,1)"><path fill="none" stroke="#000000" d="M 798.1626748576241 984.790482243984 L 788 989 L 798.1626748576241 993.209517756016" stroke-miterlimit="10"/></g><g transform="translate(-126,-134) scale(1,1)"><g><path fill="none" stroke="none"/><text fill="#000000" stroke="none" font-family="Roboto" font-size="13px" font-style="normal" font-weight="normal" text-decoration="none" x="829.5" y="1015.5">+creates</text></g></g><g transform="translate(-126,-134) scale(1,1)"><g><path fill="none" stroke="none"/><text fill="#000000" stroke="none" font-family="Roboto" font-size="13px" font-style="normal" font-weight="normal" text-decoration="none" x="805.5" y="982.5">1</text></g></g><g transform="translate(-126,-134) scale(1,1)"><path fill="none" stroke="#000000" d="M 742 593 L 516 593" stroke-miterlimit="10"/></g><g transform="translate(-126,-134) scale(1,1)"><path fill="none" stroke="#000000" d="M 526.1626748576241 588.790482243984 L 516 593 L 526.1626748576241 597.209517756016" stroke-miterlimit="10"/></g><g transform="translate(-126,-134) scale(1,1)"><g><path fill="none" stroke="none"/><text fill="#000000" stroke="none" font-family="Roboto" font-size="13px" font-style="normal" font-weight="normal" text-decoration="none" x="598.5" y="613.5">+generates</text></g></g><g transform="translate(-126,-134) scale(1,1)"><g><path fill="none" stroke="none"/><text fill="#000000" stroke="none" font-family="Roboto" font-size="13px" font-style="normal" font-weight="normal" text-decoration="none" x="716.5" y="586.5">1</text></g></g><g transform="translate(-126,-134) scale(1,1)"><g><path fill="none" stroke="none"/><text fill="#000000" stroke="none" font-family="Roboto" font-size="13px" font-style="normal" font-weight="normal" text-decoration="none" x="527.5" y="586.5">1..*</text></g></g></g></svg>